<svg width="49.454102" height="50.000076" viewBox="0 0 49.4541 50.0001" fill="none" xmlns="http://www.w3.org/2000/svg" xmlns:xlink="http://www.w3.org/1999/xlink">
	<desc>
			Created with Pixso.
	</desc>
	<defs>
		<linearGradient id="paint_linear_30_2304_0" x1="-1.169083" y1="1.421928" x2="26.137711" y2="25.124372" gradientUnits="userSpaceOnUse">
			<stop stop-color="#5A9FD4"/>
			<stop offset="1.000000" stop-color="#306998"/>
		</linearGradient>
		<linearGradient id="paint_linear_30_2305_0" x1="36.694653" y1="39.468052" x2="26.943913" y2="25.549984" gradientUnits="userSpaceOnUse">
			<stop stop-color="#FFD43B"/>
			<stop offset="1.000000" stop-color="#FFE873"/>
		</linearGradient>
	</defs>
	<path id="path1948" d="M24.4326 0.000408173C22.3936 0.00988007 20.4463 0.183807 18.7324 0.48703C13.6846 1.37883 12.7686 3.24533 12.7686 6.68762L12.7686 11.2338L24.6963 11.2338L24.6963 12.7492L12.7686 12.7492L8.29102 12.7492C4.8252 12.7492 1.78906 14.8328 0.839844 18.7968C-0.255859 23.3404 -0.303711 26.1757 0.839844 30.92C1.6875 34.4513 3.71289 36.9675 7.17969 36.9675L11.2803 36.9675L11.2803 31.5176C11.2803 27.5804 14.6875 24.1076 18.7324 24.1076L30.6465 24.1076C33.9639 24.1076 36.6113 21.3768 36.6113 18.046L36.6113 6.68762C36.6113 3.455 33.8838 1.02658 30.6465 0.48703C28.5977 0.145916 26.4717 -0.00906372 24.4326 0.000408173ZM17.9814 3.65686C19.2139 3.65686 20.2197 4.67952 20.2197 5.93684C20.2197 7.18977 19.2139 8.20296 17.9814 8.20296C16.7451 8.20296 15.7432 7.18977 15.7432 5.93684C15.7432 4.67942 16.7451 3.65686 17.9814 3.65686Z" fill="url(#paint_linear_30_2304_0)" fill-opacity="1.000000" fill-rule="nonzero"/>
	<path id="path1950" d="M38.0996 12.7492L38.0996 18.0461C38.0996 22.1527 34.6172 25.6091 30.6475 25.6091L18.7324 25.6091C15.4697 25.6091 12.7686 28.4023 12.7686 31.6706L12.7686 43.029C12.7686 46.2617 15.5801 48.1631 18.7324 49.0906C22.5088 50.2008 26.1299 50.4015 30.6475 49.0906C33.6504 48.2211 36.6113 46.4713 36.6113 43.029L36.6113 38.4828L24.6973 38.4828L24.6973 36.9674L36.6113 36.9674L42.5762 36.9674C46.043 36.9674 47.334 34.5493 48.54 30.9198C49.7852 27.1833 49.7324 23.59 48.54 18.7967C47.6836 15.3455 46.0469 12.749 42.5762 12.749L38.0996 12.749L38.0996 12.7492ZM31.3984 41.5137C32.6348 41.5137 33.6367 42.5269 33.6367 43.7798C33.6367 45.0372 32.6348 46.0599 31.3984 46.0599C30.166 46.0599 29.1602 45.0372 29.1602 43.7798C29.1602 42.5269 30.166 41.5137 31.3984 41.5137Z" fill="url(#paint_linear_30_2305_0)" fill-opacity="1.000000" fill-rule="nonzero"/>
</svg>
