<svg width="44.463867" height="50.000000" viewBox="0 0 44.4639 50" fill="none" xmlns="http://www.w3.org/2000/svg" xmlns:xlink="http://www.w3.org/1999/xlink">
	<desc>
			Created with Pixso.
	</desc>
	<defs>
		<linearGradient id="paint_linear_30_2300_0" x1="22.231812" y1="50.000000" x2="22.231812" y2="0.000000" gradientUnits="userSpaceOnUse">
			<stop stop-color="#5558FF"/>
			<stop offset="1.000000" stop-color="#00C0FF"/>
		</linearGradient>
	</defs>
	<path id="Vector" d="M39.0537 25C39.6904 24.3425 40.2822 23.6834 40.8232 23.0265C44.2422 18.8699 45.2988 15.1488 43.7979 12.5488C42.2969 9.94873 38.5459 9.00323 33.2363 9.88641C32.4004 10.0255 31.5371 10.2078 30.6523 10.4291C30.3994 9.53378 30.1211 8.67706 29.8193 7.86661C27.9277 2.79376 25.2334 0 22.2314 0C19.2305 0 16.5361 2.79376 14.6445 7.86661C14.3428 8.67706 14.0645 9.53378 13.8115 10.4291C12.9268 10.2077 12.0635 10.0255 11.2275 9.88641C5.91797 9.00342 2.16699 9.94873 0.666016 12.5488C-0.834961 15.1489 0.22168 18.8699 3.64062 23.0265C4.18164 23.6834 4.77344 24.3425 5.41016 25C4.77344 25.6575 4.18164 26.3166 3.64062 26.9735C0.220703 31.1301 -0.834961 34.8511 0.666016 37.4512C2.56055 40.7334 7.49902 40.7337 11.2275 40.1136C12.0635 39.9745 12.9268 39.7922 13.8105 39.5709C14.0645 40.4662 14.3418 41.3229 14.6445 42.1334C16.5361 47.2062 19.2305 50 22.2314 50C25.2334 50 27.9277 47.2062 29.8193 42.1334C30.1211 41.3229 30.3994 40.4662 30.6523 39.5709C31.5371 39.7923 32.4004 39.9745 33.2363 40.1136C36.9639 40.7336 41.9033 40.7334 43.7979 37.4512C45.2988 34.8512 44.2422 31.1301 40.8232 26.9735C40.2822 26.3166 39.6904 25.6575 39.0537 25ZM10.7461 37.2235C6.84473 37.8726 4.02441 37.41 3.20312 35.9863C2.38086 34.5626 3.39062 31.8892 5.90332 28.8349C6.39746 28.2343 6.93945 27.6309 7.52246 27.028C8.94824 28.3052 10.5312 29.5613 12.2383 30.7686C12.4297 32.8495 12.7246 34.8497 13.1162 36.7258C12.3037 36.929 11.5117 37.0962 10.7461 37.2235ZM12.0078 26.9548C11.1787 26.3112 10.3896 25.6583 9.64746 25C10.3896 24.3418 11.1787 23.6888 12.0078 23.0452C11.9883 23.6925 11.9775 24.3442 11.9775 25C11.9775 25.6558 11.9883 26.3075 12.0078 26.9548ZM12.2383 19.2314C10.5322 20.4387 8.94824 21.6948 7.52246 22.972C6.93945 22.3691 6.39746 21.7657 5.90332 21.1651C3.39062 18.1108 2.38086 15.4374 3.20312 14.0137C4.02539 12.59 6.84473 12.1274 10.7461 12.7765C11.5117 12.9038 12.3037 13.071 13.1162 13.2742C12.7246 15.1503 12.4297 17.1506 12.2383 19.2314ZM29.0391 17.1245C28.4873 16.7836 27.9277 16.4482 27.3584 16.1198C26.791 15.7919 26.2207 15.475 25.6514 15.1684C26.624 14.7714 27.5859 14.4145 28.5283 14.1001C28.7266 15.0738 28.8965 16.0843 29.0391 17.1245ZM17.3896 8.89014C18.7812 5.1579 20.5908 2.92969 22.2314 2.92969C23.8721 2.92969 25.6826 5.1579 27.0742 8.89014C27.3516 9.63361 27.6064 10.4207 27.8398 11.2443C26.0176 11.8412 24.1338 12.5855 22.2314 13.4617C20.3291 12.5855 18.4463 11.8411 16.624 11.2443C16.8574 10.4207 17.1123 9.63348 17.3896 8.89014ZM15.9346 14.1001C16.8779 14.4145 17.8389 14.7714 18.8125 15.1684C18.2422 15.475 17.6729 15.7919 17.1045 16.1198C16.5361 16.4482 15.9756 16.7835 15.4248 17.1245C15.5664 16.0843 15.7373 15.0738 15.9346 14.1001ZM15.4248 32.8755C15.9756 33.2164 16.5361 33.5518 17.1045 33.8802C17.6729 34.2081 18.2422 34.525 18.8125 34.8316C17.8389 35.2286 16.8779 35.5855 15.9346 35.8999C15.7373 34.9262 15.5664 33.9157 15.4248 32.8755ZM27.0742 41.1099C25.6826 44.8421 23.8721 47.0703 22.2314 47.0703C20.5908 47.0703 18.7812 44.8421 17.3896 41.1099C17.1123 40.3664 16.8574 39.5793 16.624 38.7557C18.4463 38.1589 20.3291 37.4145 22.2314 36.5383C24.1338 37.4145 26.0176 38.1588 27.8398 38.7557C27.6064 39.5793 27.3516 40.3665 27.0742 41.1099ZM28.5283 35.8999C27.5859 35.5855 26.624 35.2287 25.6504 34.8316C26.2207 34.525 26.791 34.2081 27.3584 33.8802C27.9277 33.5518 28.4873 33.2165 29.0391 32.8755C28.8965 33.9157 28.7266 34.9262 28.5283 35.8999ZM29.417 29.1476C28.29 29.9043 27.1133 30.6391 25.8936 31.343C24.6748 32.0469 23.4502 32.6988 22.2314 33.2958C21.0137 32.6989 19.7891 32.0469 18.5693 31.343C17.3506 30.6391 16.1729 29.9043 15.0469 29.1476C14.9551 27.7935 14.9072 26.4069 14.9072 25C14.9072 23.5931 14.9551 22.2065 15.0469 20.8524C16.1729 20.0957 17.3506 19.3609 18.5693 18.657C19.7891 17.9531 21.0137 17.3012 22.2314 16.7042C23.4502 17.3011 24.6748 17.9531 25.8936 18.657C27.1133 19.3609 28.29 20.0957 29.417 20.8524C29.5088 22.2065 29.5557 23.5931 29.5557 25C29.5557 26.4069 29.5088 27.7935 29.417 29.1476ZM33.7168 12.7765C37.6182 12.1274 40.4385 12.59 41.2607 14.0137C42.083 15.4374 41.0732 18.1108 38.5605 21.1651C38.0664 21.7657 37.5244 22.3691 36.9414 22.972C35.5156 21.6948 33.9316 20.4387 32.2246 19.2314C32.0342 17.1505 31.7393 15.1503 31.3477 13.2742C32.1602 13.071 32.9512 12.9038 33.7168 12.7765ZM32.4561 23.0452C33.2852 23.6888 34.0732 24.3417 34.8164 25C34.0732 25.6582 33.2852 26.3112 32.4561 26.9548C32.4756 26.3075 32.4854 25.6558 32.4854 25C32.4854 24.3442 32.4756 23.6925 32.4561 23.0452ZM41.2607 35.9863C40.4385 37.4101 37.6182 37.8726 33.7168 37.2235C32.9512 37.0962 32.1602 36.929 31.3477 36.7258C31.7393 34.8497 32.0342 32.8495 32.2246 30.7686C33.9316 29.5613 35.5156 28.3051 36.9414 27.028C37.5244 27.631 38.0664 28.2343 38.5605 28.8349C41.0732 31.8892 42.083 34.5626 41.2607 35.9863ZM22.2314 20.6055C19.8086 20.6055 17.8369 22.5768 17.8369 25C17.8369 27.4232 19.8086 29.3945 22.2314 29.3945C24.6553 29.3945 26.626 27.4232 26.626 25C26.626 22.5768 24.6553 20.6055 22.2314 20.6055ZM22.2314 26.4648C21.4238 26.4648 20.7666 25.8077 20.7666 25C20.7666 24.1923 21.4238 23.5352 22.2314 23.5352C23.0391 23.5352 23.6963 24.1923 23.6963 25C23.6963 25.8077 23.0391 26.4648 22.2314 26.4648Z" fill="url(#paint_linear_30_2300_0)" fill-opacity="1.000000" fill-rule="nonzero"/>
</svg>
