<svg width="18.000000" height="18.000000" viewBox="0 0 18 18" fill="none" xmlns="http://www.w3.org/2000/svg" xmlns:xlink="http://www.w3.org/1999/xlink">
	<desc>
			Created with Pixso.
	</desc>
	<defs/>
	<path id="Vector" d="M9 0C4.05371 0 0 4.08868 0 9.03516C0 13.9529 4.0166 18 9 18C13.9775 18 18 13.959 18 9.03516C18 4.08868 13.9463 0 9 0ZM10.582 16.7871C10.0762 16.8926 9.53809 16.9453 9 16.9453C8.46191 16.9453 7.92383 16.8926 7.41797 16.7871L7.41797 14.3192C7.41797 13.7285 7.57617 13.5176 7.78711 13.2328C7.89453 13.11 7.95898 12.9999 8.44141 12.2731L7.62891 12.1465C5.54102 11.8406 4.71777 10.7543 4.39062 9.91052C3.96875 8.78204 4.19043 7.36865 4.9502 6.47229C5.06641 6.33514 5.16113 6.10303 5.07617 5.86053C4.91797 5.37537 4.93945 4.60547 5.04492 4.31006C5.60449 4.39001 6.17871 4.79059 6.6582 5.08008C6.87988 5.20905 6.99512 5.17499 7.10156 5.18555C7.4873 5.10535 8.08789 4.91132 9.01074 4.91132C9.58008 4.91132 10.1816 4.99561 10.7715 5.16443C10.8779 5.16193 11.0469 5.25171 11.3418 5.08008C11.8428 4.77466 12.3984 4.38782 12.9551 4.31006C13.0605 4.60547 13.082 5.37537 12.9238 5.86053C12.8389 6.10303 12.9336 6.33514 13.0498 6.47229C13.8096 7.36877 14.0312 8.78204 13.6094 9.91052C13.2822 10.7543 12.459 11.8406 10.3711 12.1465L9.55859 12.2731C10.0566 13.0243 10.1094 13.1144 10.2129 13.2328C10.4238 13.5176 10.582 13.7285 10.582 14.3192L10.582 16.7871ZM11.6367 16.4813L11.6367 14.3192C11.6367 13.718 11.5098 13.3172 11.3418 13.0219C12.9443 12.5895 14.084 11.6401 14.5898 10.2797C15.1279 8.84534 14.8848 7.13672 13.9883 5.95544C14.1465 5.24884 14.1465 4.1203 13.7676 3.59296C13.5986 3.36096 13.3662 3.23438 13.0713 3.23438C13.0605 3.23438 13.0605 3.23438 13.0605 3.23438C12.2432 3.27856 11.5986 3.69043 10.9092 4.10974C10.2764 3.94092 9.63281 3.85663 8.98926 3.85663C8.33594 3.85663 7.68164 3.95154 7.10156 4.10974C6.375 3.67163 5.7373 3.27747 4.89746 3.23438C4.63379 3.23438 4.40137 3.36096 4.23242 3.59296C3.85352 4.1203 3.85352 5.24884 4.01172 5.95544C3.11523 7.13672 2.87207 8.85583 3.41016 10.2797C3.91602 11.6401 5.05566 12.5895 6.6582 13.0219C6.52734 13.2507 6.42383 13.5461 6.38379 13.9459C6.05957 14.0576 5.7793 14.0939 5.51758 14.0172C5.24219 13.9357 5.02734 13.7518 4.84082 13.4382C4.42188 12.7345 3.70898 12.1601 2.89648 12.2348L2.98926 13.2853C3.36523 13.2509 3.73926 13.6489 3.93359 13.9769C4.25488 14.5172 4.6875 14.8715 5.21875 15.0286C5.61328 15.1449 5.97461 15.1422 6.36328 15.0592L6.36328 16.4813C3.29395 15.4055 1.05469 12.4734 1.05469 9.03516C1.05469 4.66876 4.63379 1.05469 9 1.05469C13.3662 1.05469 16.9453 4.66876 16.9453 9.03516C16.9453 12.4734 14.7061 15.4055 11.6367 16.4813Z" fill="#25B81D" fill-opacity="1.000000" fill-rule="nonzero"/>
</svg>
