<svg width="14.000000" height="13.999939" viewBox="0 0 14 13.9999" fill="none" xmlns="http://www.w3.org/2000/svg" xmlns:xlink="http://www.w3.org/1999/xlink">
	<desc>
			Created with Pixso.
	</desc>
	<defs/>
	<path id="Vector" d="M3.39648 13.9999C2.50195 14 1.65723 13.6456 1.00586 12.994C0.323242 12.3116 -0.0332031 11.4177 0.00195312 10.4766C0.0390625 9.50476 0.477539 8.57117 1.27246 7.77673L2.70215 6.34064C2.91504 6.12659 3.26172 6.12592 3.47559 6.33905C3.68945 6.55219 3.69043 6.89844 3.47754 7.11243L2.0459 8.54938C0.886719 9.70905 0.777344 11.2184 1.7793 12.2206C2.78125 13.2229 4.29102 13.1134 5.4502 11.9545L7.41504 9.98883C8.01172 9.39307 8.33984 8.71277 8.36523 8.02161C8.38965 7.388 8.14648 6.78314 7.68164 6.31842C7.52539 6.16272 7.35352 6.03058 7.16992 5.92572C6.90723 5.77625 6.81543 5.44232 6.96484 5.17987C7.11426 4.91742 7.44824 4.82593 7.71094 4.97534C7.97949 5.1286 8.23047 5.32025 8.45508 5.54504C9.1377 6.22736 9.49414 7.1214 9.45898 8.06238C9.42188 9.0343 8.9834 9.9679 8.18848 10.7623L6.22363 12.7279C5.42871 13.5223 4.49512 13.9614 3.52344 13.9977C3.48145 13.9991 3.43848 13.9999 3.39648 13.9999ZM7.03516 8.82007C7.18457 8.55762 7.09277 8.22369 6.83105 8.07422C6.64648 7.96936 6.47461 7.83722 6.31836 7.68158C5.31641 6.67932 5.42578 5.16998 6.58496 4.01111L8.5498 2.04547C9.70898 0.886658 11.2188 0.777161 12.2207 1.77936C13.2227 2.78156 13.1133 4.29089 11.9541 5.45056L10.5225 6.88751C10.3096 7.1015 10.3105 7.44781 10.5244 7.66095C10.7383 7.87408 11.085 7.87329 11.2979 7.65936L12.7275 6.22321C13.5225 5.42877 13.9609 4.49518 13.998 3.52338C14.0332 2.58234 13.6768 1.68829 12.9941 1.00598C12.3115 0.323669 11.417 -0.0327148 10.4766 0.00238037C9.50488 0.0386353 8.57129 0.477722 7.77734 1.27209L5.81152 3.23773C5.0166 4.0321 4.57812 4.9657 4.54102 5.93756C4.50586 6.8786 4.8623 7.77264 5.54492 8.45496C5.76953 8.67969 6.02051 8.8714 6.28906 9.02466C6.375 9.0733 6.46777 9.09644 6.55957 9.09644C6.75 9.09637 6.93457 8.99707 7.03516 8.82007Z" fill="#25B81D" fill-opacity="1.000000" fill-rule="nonzero"/>
</svg>
