<svg width="64.000000" height="64.000000" viewBox="0 0 64 64" fill="none" xmlns="http://www.w3.org/2000/svg" xmlns:xlink="http://www.w3.org/1999/xlink">
	<desc>
			Created with Pixso.
	</desc>
	<defs>
		<clipPath id="clip105_238">
			<rect id="fi_3586792" width="64.000000" height="64.000000" fill="white" fill-opacity="0"/>
		</clipPath>
	</defs>
	<rect id="fi_3586792" width="64.000000" height="64.000000" fill="#FFFFFF" fill-opacity="0"/>
	<g clip-path="url(#clip105_238)">
		<path id="Vector" d="M13 55C12.9053 54.999 12.8115 54.9856 12.7197 54.96C12.5127 54.8994 12.3301 54.7732 12.2002 54.6001C12.0703 54.427 12 54.2163 12 54L12 34.5649L1 34.5649C0.734375 34.5649 0.480469 34.4597 0.292969 34.2722C0.105469 34.0845 0 33.8303 0 33.5649L0 10C0 9.73486 0.105469 9.48047 0.292969 9.29297C0.480469 9.10547 0.734375 9 1 9L26 9C26.2656 9 26.5195 9.10547 26.707 9.29297C26.8945 9.48047 27 9.73486 27 10L27 33.5449C27 33.7344 26.9463 33.9199 26.8447 34.0801L13.8447 54.5349C13.7549 54.6775 13.6299 54.7949 13.4824 54.8762C13.335 54.9575 13.1689 55 13 55ZM2 32.5449L13 32.5449C13.2656 32.5449 13.5195 32.6504 13.707 32.8379C13.8945 33.0254 14 33.2798 14 33.5449L14 50.5449L25 33.25L25 11L2 11L2 32.5449Z" fill="#25B81D" fill-opacity="1.000000" fill-rule="nonzero"/>
		<path id="Vector" d="M50 55C49.9053 54.999 49.8115 54.9856 49.7197 54.96C49.5127 54.8994 49.3301 54.7732 49.2002 54.6001C49.0703 54.427 49 54.2163 49 54L49 34.5649L38 34.5649C37.7344 34.5649 37.4805 34.4597 37.293 34.2722C37.1055 34.0845 37 33.8303 37 33.5649L37 10C37 9.73486 37.1055 9.48047 37.293 9.29297C37.4805 9.10547 37.7344 9 38 9L63 9C63.2656 9 63.5195 9.10547 63.707 9.29297C63.8945 9.48047 64 9.73486 64 10L64 33.5449C64 33.7344 63.9463 33.9199 63.8447 34.0801L50.8447 54.5349C50.7549 54.6775 50.6299 54.7949 50.4824 54.8762C50.335 54.9575 50.1689 55 50 55ZM39 32.5449L50 32.5449C50.2656 32.5449 50.5195 32.6504 50.707 32.8379C50.8945 33.0254 51 33.2798 51 33.5449L51 50.5449L62 33.25L62 11L39 11L39 32.5449Z" fill="#25B81D" fill-opacity="1.000000" fill-rule="nonzero"/>
	</g>
</svg>
