<svg width="151.815430" height="21.756104" viewBox="0 0 151.815 21.7561" fill="none" xmlns="http://www.w3.org/2000/svg" xmlns:xlink="http://www.w3.org/1999/xlink">
	<desc>
			Created with Pixso.
	</desc>
	<defs/>
	<path id="&lt;blackone/&gt;" d="M11.8156 7.02805L2.51958 11.9841L11.6476 16.716L10.2756 19.1521L-0.000421762 13.8321L-0.000421762 10.276L10.5276 4.67605L11.8156 7.02805ZM14.3636 20.076L14.3636 1.40005L17.2476 1.40005L17.2476 7.75605C18.4049 6.95338 19.4876 6.55205 20.4956 6.55205C22.4369 6.55205 23.8369 7.12138 24.6956 8.26005C25.5542 9.38005 25.9836 11.1347 25.9836 13.524C25.9836 15.9134 25.4516 17.6587 24.3876 18.76C23.3422 19.8427 21.9516 20.3841 20.2156 20.3841C19.4129 20.3841 18.4142 20.0947 17.2196 19.5161L17.1636 20.076L14.3636 20.076ZM20.1316 9.26805C19.2169 9.26805 18.2556 9.68805 17.2476 10.528L17.2476 16.828C18.3676 17.3881 19.3756 17.668 20.2716 17.668C21.1676 17.668 21.8209 17.3321 22.2316 16.66C22.6609 15.9694 22.8756 14.9147 22.8756 13.496C22.8756 10.6774 21.9609 9.26805 20.1316 9.26805ZM28.5876 20.076L28.5876 17.5L32.7596 17.5L32.7596 4.00405L29.1476 4.03205L29.1196 1.48405L35.6436 1.45605L35.6436 17.5L39.5916 17.5L39.5916 20.076L28.5876 20.076ZM46.8156 17.668C47.3382 17.668 47.9169 17.5467 48.5516 17.3041C49.1862 17.0614 49.6902 16.7907 50.0636 16.4921L50.0636 14.532C48.9436 14.4387 48.0289 14.392 47.3196 14.392C45.7702 14.392 44.9956 14.9707 44.9956 16.128C44.9956 17.1547 45.6022 17.668 46.8156 17.668ZM46.3676 20.3841C43.3809 20.3841 41.8876 18.9654 41.8876 16.128C41.8876 14.616 42.3636 13.5614 43.3156 12.9641C44.2862 12.348 45.6209 12.0401 47.3196 12.0401C48.1222 12.0401 49.0369 12.0867 50.0636 12.18C50.0636 11.0601 49.9049 10.2947 49.5876 9.88405C49.2702 9.47338 48.7196 9.26805 47.9356 9.26805C47.1516 9.26805 46.2369 9.36138 45.1916 9.54805C44.1462 9.73472 43.3436 9.92138 42.7836 10.108L42.2516 7.44805C44.2116 6.85072 46.1249 6.55205 47.9916 6.55205C49.8582 6.55205 51.1462 6.96272 51.8556 7.78405C52.5836 8.60538 52.9476 9.99605 52.9476 11.956L52.9476 17.64L53.2556 20.104L50.3716 20.3841L50.0916 19.0961C48.5236 19.9547 47.2822 20.3841 46.3676 20.3841ZM63.8956 11.62L63.8956 9.32405C63.4662 9.24938 63.0462 9.21205 62.6356 9.21205C61.4782 9.21205 60.6662 9.54805 60.1996 10.22C59.7516 10.892 59.5276 11.956 59.5276 13.4121C59.5276 14.868 59.7609 15.9507 60.2276 16.66C60.7129 17.3507 61.5529 17.696 62.7476 17.696C63.9422 17.696 65.1649 17.528 66.4156 17.192L66.8356 19.8801C65.5289 20.2534 64.1289 20.4401 62.6356 20.4401C58.4916 20.4401 56.4196 18.1067 56.4196 13.44C56.4196 11.032 56.8862 9.27738 57.8196 8.17605C58.7716 7.05605 60.3489 6.49605 62.5516 6.49605C63.9702 6.49605 65.3329 6.67338 66.6396 7.02805L66.6396 11.62L63.8956 11.62ZM70.9236 20.076L70.9236 1.45605L73.8076 1.45605L73.8076 12.1241L75.6556 11.928C76.7009 10.584 77.6156 9.12805 78.3996 7.56005L78.7916 6.77605L81.9276 6.77605C80.7516 9.25872 79.4449 11.3307 78.0076 12.9921C79.2022 14.6907 80.4062 16.6974 81.6196 19.0121L82.1796 20.076L78.9036 20.076C77.9889 18.0974 76.9436 16.2027 75.7676 14.392L73.8076 14.588L73.8076 20.076L70.9236 20.076ZM85.3716 8.26005C86.3236 7.12138 87.7889 6.55205 89.7676 6.55205C91.7462 6.55205 93.2116 7.12138 94.1636 8.26005C95.1156 9.38005 95.5916 11.116 95.5916 13.4681C95.5916 15.82 95.1156 17.5747 94.1636 18.732C93.2116 19.8707 91.7462 20.4401 89.7676 20.4401C87.7889 20.4401 86.3236 19.8707 85.3716 18.732C84.4196 17.5747 83.9436 15.82 83.9436 13.4681C83.9436 11.116 84.4196 9.38005 85.3716 8.26005ZM87.6116 10.248C87.2382 10.9014 87.0516 11.9747 87.0516 13.4681C87.0516 14.9614 87.2476 16.0441 87.6396 16.716C88.0316 17.3881 88.7409 17.724 89.7676 17.724C90.7942 17.724 91.5036 17.3881 91.8956 16.716C92.2876 16.0441 92.4836 14.9614 92.4836 13.4681C92.4836 11.9747 92.2876 10.9014 91.8956 10.248C91.5222 9.59472 90.8129 9.26805 89.7676 9.26805C88.7222 9.26805 88.0036 9.59472 87.6116 10.248ZM101.136 6.77605L101.192 7.58805C102.704 6.89738 103.889 6.55205 104.748 6.55205C106.26 6.55205 107.37 7.00005 108.08 7.89605C108.808 8.77338 109.172 10.1547 109.172 12.0401L109.172 20.076L106.288 20.076L106.288 12.1241C106.288 11.2281 106.129 10.528 105.812 10.024C105.494 9.52005 105 9.26805 104.328 9.26805C103.656 9.26805 102.62 9.59472 101.22 10.248L101.22 20.076L98.3356 20.076L98.3356 6.77605L101.136 6.77605ZM112.14 13.44C112.14 11.1814 112.644 9.47338 113.652 8.31605C114.66 7.14005 116.06 6.55205 117.852 6.55205C119.644 6.55205 121.025 7.08405 121.996 8.14805C122.985 9.19338 123.498 10.7334 123.536 12.768L123.424 14.84L115.248 14.84C115.416 16.8561 116.424 17.864 118.272 17.864C119.56 17.864 120.922 17.6307 122.36 17.164L122.948 19.6C122.35 19.8054 121.576 19.9827 120.624 20.132C119.672 20.3001 118.888 20.3841 118.272 20.3841C114.184 20.3841 112.14 18.0694 112.14 13.44ZM117.964 9.15605C117.086 9.15605 116.424 9.41738 115.976 9.94005C115.546 10.444 115.304 11.2934 115.248 12.488L120.428 12.488C120.428 10.2667 119.606 9.15605 117.964 9.15605ZM124.824 20.3841L136.416 4.95911e-05L138.712 1.34405L127.12 21.7561L124.824 20.3841ZM149.296 11.9841L140 7.02805L141.288 4.67605L151.816 10.276L151.816 13.8321L141.54 19.1521L140.168 16.716L149.296 11.9841Z" fill="#25B81D" fill-opacity="1.000000" fill-rule="evenodd"/>
</svg>
